<?xml version="1.0" standalone="no"?>
<!DOCTYPE svg PUBLIC "-//W3C//DTD SVG 20010904//EN"
 "http://www.w3.org/TR/2001/REC-SVG-20010904/DTD/svg10.dtd">
<svg version="1.0" xmlns="http://www.w3.org/2000/svg"
 width="112.000000pt" height="121.000000pt" viewBox="0 0 112.000000 121.000000"
 preserveAspectRatio="xMidYMid meet">

<g transform="translate(0.000000,121.000000) scale(0.100000,-0.100000)"
fill="#93c5fd" stroke="none">
<path d="M602 1108 c-82 -14 -219 -115 -258 -190 -39 -75 -2 -174 89 -235 58
-39 146 -51 257 -35 41 5 77 9 81 7 8 -6 -48 -383 -62 -417 -28 -67 -68 -61
-147 22 -63 67 -98 77 -146 39 -26 -20 -35 -65 -20 -103 6 -15 182 -139 241
-170 50 -26 108 15 156 110 9 17 26 95 37 174 29 197 80 391 130 490 32 64 40
91 38 123 -3 38 -6 43 -41 56 -35 13 -40 13 -65 -6 -15 -12 -32 -38 -39 -63
-30 -104 -153 -166 -277 -140 -57 12 -106 52 -106 88 0 9 22 37 50 63 64 60
115 76 194 59 30 -6 60 -9 66 -5 14 9 12 67 -3 86 -30 39 -106 60 -175 47z"/>
<path d="M163 968 c-12 -16 -38 -275 -38 -390 0 -102 14 -129 86 -166 36 -19
53 -22 94 -16 65 8 109 29 141 67 22 26 25 38 21 75 -9 83 -83 120 -213 107
l-67 -8 9 104 c14 167 12 233 -7 237 -9 1 -20 -3 -26 -10z m216 -402 c46 -48
-6 -106 -93 -106 -45 0 -86 36 -86 75 0 32 44 54 111 55 36 0 50 -5 68 -24z"/>
</g>
</svg>
